<?xml version="1.0" standalone="no"?><!-- Generator: Gravit.io --><svg xmlns="http://www.w3.org/2000/svg" xmlns:xlink="http://www.w3.org/1999/xlink" style="isolation:isolate" viewBox="0 0 288 233.989" width="288" height="233.989"><linearGradient id="_lgradient_3" x1="0" y1="0.5" x2="1" y2="0.5" gradientTransform="matrix(288,0,0,232.989,0,1)" gradientUnits="userSpaceOnUse"><stop offset="1.3043478260869565%" stop-opacity="0.5" style="stop-color:rgb(0,173,255)"/><stop offset="32.608695652173914%" stop-opacity="0.5" style="stop-color:rgb(0,173,255)"/><stop offset="67.82608695652173%" stop-opacity="0.5" style="stop-color:rgb(0,173,255)"/><stop offset="97.82608695652173%" stop-opacity="0.2" style="stop-color:rgb(0,249,255)"/></linearGradient><linearGradient id="_lgradient_4" x1="0" y1="0.5" x2="1" y2="0.5"><stop offset="2.1739130434782608%" stop-opacity="1" style="stop-color:rgb(0,173,255)"/><stop offset="98.26086956521739%" stop-opacity="1" style="stop-color:rgb(0,173,255)"/></linearGradient><path d=" M 0 233.989 L 288 233.989 Q 232.75 220.038 219 214 C 206.532 208.525 186.125 201.712 176 198 C 165.875 194.288 147.875 188.163 137 184 C 126.125 179.837 111.75 172.85 103 167 C 94.25 161.15 83.484 149.6 79 143 C 74.185 135.913 66.172 118.507 62 110 C 58.813 103.501 49.312 87.1 43 76 C 36.347 64.3 30.241 54.816 27 50 C 23.759 45.184 17.595 36.084 8.508 19 Q 4.612 11.676 0 1 L 0 233.989 Z " fill="url(#_lgradient_3)" fill-opacity="0.5" vector-effect="non-scaling-stroke" stroke-width="0.5" stroke="url(#_lgradient_4)" stroke-linejoin="miter" stroke-linecap="square" stroke-miterlimit="3"/><linearGradient id="_lgradient_5" x1="0" y1="0.5" x2="1" y2="0.5" gradientTransform="matrix(225,0,0,189.989,0,44)" gradientUnits="userSpaceOnUse"><stop offset="0%" stop-opacity="0.3" style="stop-color:rgb(0,173,255)"/><stop offset="44.78260869565218%" stop-opacity="0.75" style="stop-color:rgb(0,173,255)"/><stop offset="66.95652173913044%" stop-opacity="0.4" style="stop-color:rgb(0,173,255)"/><stop offset="100%" stop-opacity="0.35" style="stop-color:rgb(0,212,255)"/></linearGradient><linearGradient id="_lgradient_6" x1="0" y1="0.5" x2="1" y2="0.5"><stop offset="2.1739130434782608%" stop-opacity="1" style="stop-color:rgb(0,173,255)"/><stop offset="98.26086956521739%" stop-opacity="1" style="stop-color:rgb(0,173,255)"/></linearGradient><path d=" M 0 233.989 L 225 233.989 Q 188.359 222.132 177 218 C 165.99 213.995 140.75 206.471 133 204 C 125.25 201.529 92.391 193.321 79 182 C 65.609 170.679 56.125 155.038 50 143 C 43.875 130.962 37.375 115.288 32 105 C 26.625 94.712 22.43 83.28 17 75 Q 11.57 66.72 0 44 L 0 233.989 Z " fill="url(#_lgradient_5)" fill-opacity="0.5" vector-effect="non-scaling-stroke" stroke-width="0.5" stroke="url(#_lgradient_6)" stroke-linejoin="miter" stroke-linecap="square" stroke-miterlimit="3"/><linearGradient id="_lgradient_7" x1="0" y1="0.5" x2="1" y2="0.5" gradientTransform="matrix(183,0,0,150,0,84)" gradientUnits="userSpaceOnUse"><stop offset="2.1739130434782608%" stop-opacity="0.45" style="stop-color:rgb(0,173,255)"/><stop offset="49.130434782608695%" stop-opacity="0.4" style="stop-color:rgb(0,173,255)"/><stop offset="78.69565217391305%" stop-opacity="0.35" style="stop-color:rgb(46,130,238)"/><stop offset="99.1304347826087%" stop-opacity="0.4" style="stop-color:rgb(0,173,255)"/></linearGradient><linearGradient id="_lgradient_8" x1="0" y1="0.5" x2="1" y2="0.5"><stop offset="2.1739130434782608%" stop-opacity="1" style="stop-color:rgb(0,173,255)"/><stop offset="98.26086956521739%" stop-opacity="1" style="stop-color:rgb(0,173,255)"/></linearGradient><path d=" M 0 84 Q 3.211 93.376 8 105 C 12.789 116.624 16.897 130.163 21 140 C 26.125 152.288 32.585 169.134 47 185 C 64.315 204.058 91.134 212.52 97 214 C 102.866 215.48 120.094 218.632 131 221 C 141.906 223.368 148.313 225.1 159 228 Q 169.688 230.9 183 234 L 0 233.989 L 0 84 Z " fill="url(#_lgradient_7)" fill-opacity="0.5" vector-effect="non-scaling-stroke" stroke-width="0.5" stroke="url(#_lgradient_8)" stroke-linejoin="miter" stroke-linecap="square" stroke-miterlimit="3"/></svg>