<?xml version="1.0" standalone="no"?><!-- Generator: Gravit.io --><svg xmlns="http://www.w3.org/2000/svg" xmlns:xlink="http://www.w3.org/1999/xlink" style="isolation:isolate" viewBox="0 0 178 175" width="178" height="175"><linearGradient id="_lgradient_20" x1="0" y1="0.5" x2="1" y2="0.5" gradientTransform="matrix(123.964,0,0,117,0,58)" gradientUnits="userSpaceOnUse"><stop offset="1.3043478260869565%" stop-opacity="0.5" style="stop-color:rgb(175,7,188)"/><stop offset="48.69565217391305%" stop-opacity="0.75" style="stop-color:rgb(89,88,221)"/><stop offset="100%" stop-opacity="0.5" style="stop-color:rgb(0,173,255)"/></linearGradient><linearGradient id="_lgradient_21" x1="0" y1="0.5" x2="1" y2="0.5"><stop offset="2.1739130434782608%" stop-opacity="1" style="stop-color:rgb(175,7,188)"/><stop offset="98.26086956521739%" stop-opacity="1" style="stop-color:rgb(0,173,255)"/></linearGradient><path d=" M 0 58 Q 17.88 110.15 38.034 131.301 Q 58.189 152.453 123.964 175 L 0 175 L 0 58 Z " fill="url(#_lgradient_20)" vector-effect="non-scaling-stroke" stroke-width="0.5" stroke="url(#_lgradient_21)" stroke-linejoin="miter" stroke-linecap="square" stroke-miterlimit="3"/><linearGradient id="_lgradient_22" x1="0" y1="0.5" x2="1" y2="0.5" gradientTransform="matrix(26,0,0,89,7,5)" gradientUnits="userSpaceOnUse"><stop offset="2.1739130434782608%" stop-opacity="0.6" style="stop-color:rgb(175,7,188)"/><stop offset="98.69565217391305%" stop-opacity="0.6" style="stop-color:rgb(0,173,255)"/></linearGradient><linearGradient id="_lgradient_23" x1="0" y1="0.5" x2="1" y2="0.5"><stop offset="0%" stop-opacity="1" style="stop-color:rgb(175,7,188)"/><stop offset="98.69565217391305%" stop-opacity="1" style="stop-color:rgb(0,173,255)"/></linearGradient><path d=" M 7 17 L 7 49 L 17 76 L 29 94 L 33 76 L 29 53 L 22 33 L 11 5 L 7 17 Z " fill="url(#_lgradient_22)" vector-effect="non-scaling-stroke" stroke-width="0.5" stroke="url(#_lgradient_23)" stroke-linejoin="miter" stroke-linecap="square" stroke-miterlimit="3"/><linearGradient id="_lgradient_24" x1="0" y1="0.5" x2="1" y2="0.5" gradientTransform="matrix(26,0,0,89,38.515,36.538)" gradientUnits="userSpaceOnUse"><stop offset="2.1739130434782608%" stop-opacity="0.6" style="stop-color:rgb(175,7,188)"/><stop offset="98.69565217391305%" stop-opacity="0.6" style="stop-color:rgb(0,173,255)"/></linearGradient><linearGradient id="_lgradient_25" x1="0" y1="0.5" x2="1" y2="0.5"><stop offset="0%" stop-opacity="1" style="stop-color:rgb(175,7,188)"/><stop offset="97.82608695652173%" stop-opacity="1" style="stop-color:rgb(0,173,255)"/></linearGradient><path d=" M 38.515 48.538 L 38.515 80.538 L 48.515 107.538 L 60.515 125.538 L 64.515 107.538 L 60.515 84.538 L 53.515 64.538 L 42.515 36.538 L 38.515 48.538 Z " fill="url(#_lgradient_24)" vector-effect="non-scaling-stroke" stroke-width="0.5" stroke="url(#_lgradient_25)" stroke-linejoin="miter" stroke-linecap="square" stroke-miterlimit="3"/><linearGradient id="_lgradient_26" x1="0" y1="0.5" x2="1" y2="0.5" gradientTransform="matrix(26,0,0,89,76,64.538)" gradientUnits="userSpaceOnUse"><stop offset="2.1739130434782608%" stop-opacity="0.6" style="stop-color:rgb(175,7,188)"/><stop offset="98.69565217391305%" stop-opacity="0.6" style="stop-color:rgb(0,173,255)"/></linearGradient><linearGradient id="_lgradient_27" x1="0" y1="0.5" x2="1" y2="0.5"><stop offset="0%" stop-opacity="1" style="stop-color:rgb(175,7,188)"/><stop offset="98.69565217391305%" stop-opacity="1" style="stop-color:rgb(0,173,255)"/></linearGradient><path d=" M 76 76.538 L 76 108.538 L 86 135.538 L 98 153.538 L 102 135.538 L 98 112.538 L 91 92.538 L 80 64.538 L 76 76.538 Z " fill="url(#_lgradient_26)" vector-effect="non-scaling-stroke" stroke-width="0.5" stroke="url(#_lgradient_27)" stroke-linejoin="miter" stroke-linecap="square" stroke-miterlimit="3"/><linearGradient id="_lgradient_28" x1="0" y1="0.5" x2="1" y2="0.5" gradientTransform="matrix(26,0,0,89,113.515,84.538)" gradientUnits="userSpaceOnUse"><stop offset="2.1739130434782608%" stop-opacity="0.6" style="stop-color:rgb(175,7,188)"/><stop offset="98.69565217391305%" stop-opacity="0.6" style="stop-color:rgb(0,173,255)"/></linearGradient><linearGradient id="_lgradient_29" x1="0" y1="0.5" x2="1" y2="0.5"><stop offset="0%" stop-opacity="1" style="stop-color:rgb(175,7,188)"/><stop offset="99.1304347826087%" stop-opacity="1" style="stop-color:rgb(0,173,255)"/></linearGradient><path d=" M 113.515 96.538 L 113.515 128.538 L 123.515 155.538 L 135.515 173.538 L 139.515 155.538 L 135.515 132.538 L 128.515 112.538 L 117.515 84.538 L 113.515 96.538 Z " fill="url(#_lgradient_28)" vector-effect="non-scaling-stroke" stroke-width="0.5" stroke="url(#_lgradient_29)" stroke-linejoin="miter" stroke-linecap="square" stroke-miterlimit="3"/></svg>