<?xml version="1.0" standalone="no"?><!-- Generator: Gravit.io --><svg xmlns="http://www.w3.org/2000/svg" xmlns:xlink="http://www.w3.org/1999/xlink" style="isolation:isolate" viewBox="0 0 400 200" width="400" height="200"><g style="isolation:isolate"><linearGradient id="_lgradient_0" x1="0" y1="0.5" x2="1" y2="0.5" gradientTransform="matrix(-400,0,0,85,400,-1)" gradientUnits="userSpaceOnUse"><stop offset="2.1739130434782608%" stop-opacity="0.1" style="stop-color:rgb(240,14,119)"/><stop offset="27.391304347826086%" stop-opacity="0.05" style="stop-color:rgb(207,10,154)"/><stop offset="50.8695652173913%" stop-opacity="0.05" style="stop-color:rgb(149,31,186)"/><stop offset="74.34782608695653%" stop-opacity="0.1" style="stop-color:rgb(88,54,220)"/><stop offset="100%" stop-opacity="0.1" style="stop-color:rgb(0,101,253)"/></linearGradient><path d=" M 0 0 L 0 84 Q 8.234 82.531 27 76 C 45.766 69.469 49 66.234 82 59 C 115 51.766 134.125 51.5 153.525 51 C 172.925 50.5 195.283 50.749 218 50 C 240.717 49.251 249.138 49.049 266 48.667 C 282.862 48.284 304.608 44.834 313 43 C 321.392 41.166 330.43 37.132 342 30 C 350.937 24.491 362.848 16.079 368 12 Q 373.152 7.921 400 -1 L 0 0 Z " fill="url(#_lgradient_0)"/><linearGradient id="_lgradient_1" x1="0" y1="0.5" x2="1" y2="0.5" gradientTransform="matrix(-360,0,0,112,360,-1)" gradientUnits="userSpaceOnUse"><stop offset="2.1739130434782608%" stop-opacity="0.1" style="stop-color:rgb(240,14,119)"/><stop offset="14.782608695652174%" stop-opacity="0.05" style="stop-color:rgb(227,13,133)"/><stop offset="29.565217391304348%" stop-opacity="0.05" style="stop-color:rgb(211,11,150)"/><stop offset="52.60869565217391%" stop-opacity="0.05" style="stop-color:rgb(175,7,188)"/><stop offset="78.26086956521739%" stop-opacity="0.2" style="stop-color:rgb(77,60,225)"/><stop offset="97.3913043478261%" stop-opacity="0.3" style="stop-color:rgb(0,101,253)"/></linearGradient><path d=" M 0 0 L 0 111 Q 16.797 102.938 36 95 C 55.203 87.063 71.922 81.141 93 76 C 114.078 70.859 126.813 70.313 147 69 C 167.188 67.688 206.813 68.813 230 69 C 253.188 69.188 266.594 66.188 282 58 C 297.406 49.813 309.438 33.313 325 20 Q 340.563 6.688 360 -1 L 0 0 Z " fill="url(#_lgradient_1)"/><linearGradient id="_lgradient_2" x1="0" y1="0.5" x2="1" y2="0.5" gradientTransform="matrix(-322,0,0,140,322,0)" gradientUnits="userSpaceOnUse"><stop offset="2.1739130434782608%" stop-opacity="0.05" style="stop-color:rgb(240,14,119)"/><stop offset="15.217391304347828%" stop-opacity="0.05" style="stop-color:rgb(227,13,133)"/><stop offset="29.565217391304348%" stop-opacity="0.05" style="stop-color:rgb(211,11,150)"/><stop offset="53.04347826086957%" stop-opacity="0.05" style="stop-color:rgb(175,7,188)"/><stop offset="77.82608695652173%" stop-opacity="0.2" style="stop-color:rgb(77,60,225)"/><stop offset="97.82608695652173%" stop-opacity="0.2" style="stop-color:rgb(0,101,253)"/></linearGradient><path d=" M 0 0 L 0 140 Q 25.25 125.75 40 118 C 54.75 110.25 72.5 104.25 93 98 C 113.5 91.75 128.25 90 147 89 C 165.75 88 190.453 88.953 207 84 C 226.573 78.141 243.119 61.009 249 55 C 254.75 49.125 268.438 29.313 284 16 Q 299.563 2.688 322 0 L 0 0 Z " fill="url(#_lgradient_2)"/></g></svg>