<?xml version="1.0" standalone="no"?><!-- Generator: Gravit.io --><svg xmlns="http://www.w3.org/2000/svg" xmlns:xlink="http://www.w3.org/1999/xlink" style="isolation:isolate" viewBox="0 0 128 128" width="128px" height="128px"><linearGradient id="_lgradient_8" x1="0" y1="0.5" x2="1" y2="0.5" gradientTransform="matrix(26,0,0,89,29,17)" gradientUnits="userSpaceOnUse"><stop offset="2.1739130434782608%" stop-opacity="1" style="stop-color:rgb(175,7,188)"/><stop offset="98.69565217391305%" stop-opacity="0.6" style="stop-color:rgb(0,173,255)"/><stop offset="99.56521739130434%" stop-opacity="1" style="stop-color:rgb(0,175,255)"/></linearGradient><path d=" M 29 29 L 29 61 L 39 88 L 51 106 L 55 88 L 51 65 L 44 45 L 33 17 L 29 29 Z " fill="url(#_lgradient_8)"/><g style="isolation:isolate"><linearGradient id="_lgradient_9" x1="0" y1="0.5" x2="1" y2="0.5" gradientTransform="matrix(8,0,0,66,56,7)" gradientUnits="userSpaceOnUse"><stop offset="0%" stop-opacity="0.6" style="stop-color:rgb(175,7,188)"/><stop offset="98.69565217391305%" stop-opacity="0.2" style="stop-color:rgb(0,173,255)"/></linearGradient><linearGradient id="_lgradient_10" x1="0" y1="0.5" x2="1" y2="0.5"><stop offset="0%" stop-opacity="1" style="stop-color:rgb(175,7,188)"/><stop offset="100%" stop-opacity="0" style="stop-color:rgb(0,173,255)"/></linearGradient><path d=" M 58 17 L 56 39.64 L 58 59.056 L 64 73 L 64 59.056 L 64 39.64 L 64 17 L 64 7 L 58 17 Z " fill="url(#_lgradient_9)" vector-effect="non-scaling-stroke" stroke-width="0.5" stroke="url(#_lgradient_10)" stroke-linejoin="miter" stroke-linecap="square" stroke-miterlimit="3"/><linearGradient id="_lgradient_11" x1="0" y1="0.5" x2="1" y2="0.5" gradientTransform="matrix(17,0,0,66,56,7)" gradientUnits="userSpaceOnUse"><stop offset="2.1739130434782608%" stop-opacity="0.6" style="stop-color:rgb(175,7,188)"/><stop offset="56.086956521739125%" stop-opacity="0.6" style="stop-color:rgb(52,123,235)"/><stop offset="98.69565217391305%" stop-opacity="0.6" style="stop-color:rgb(0,173,255)"/></linearGradient><path d=" M 58 17 L 56 39.64 L 58 59.056 L 64 73 L 70 59.056 L 73 39.64 L 70 17 L 64 7 L 58 17 Z " fill="url(#_lgradient_11)"/></g><linearGradient id="_lgradient_12" x1="0" y1="0.5" x2="1" y2="0.5" gradientTransform="matrix(-26,0,0,89,99,17)" gradientUnits="userSpaceOnUse"><stop offset="2.1739130434782608%" stop-opacity="0.45" style="stop-color:rgb(175,7,188)"/><stop offset="98.26086956521739%" stop-opacity="0.6" style="stop-color:rgb(0,173,255)"/></linearGradient><path d=" M 99 29 L 99 61 L 89 88 L 77 106 L 73 88 L 77 65 L 84 45 L 95 17 L 99 29 Z " fill="url(#_lgradient_12)"/></svg>