<?xml version="1.0" standalone="no"?><!-- Generator: Gravit.io --><svg xmlns="http://www.w3.org/2000/svg" xmlns:xlink="http://www.w3.org/1999/xlink" style="isolation:isolate" viewBox="0 0 400 200" width="400px" height="200px"><defs><clipPath id="_clipPath_EyqaOgun6QhRiWDxvLA6p0OMjTkEjhBo"><rect width="400" height="200"/></clipPath></defs><g clip-path="url(#_clipPath_EyqaOgun6QhRiWDxvLA6p0OMjTkEjhBo)"><linearGradient id="_lgradient_18" x1="0" y1="0.5" x2="1" y2="0.5" gradientTransform="matrix(400,0,0,85,0,-1)" gradientUnits="userSpaceOnUse"><stop offset="2.1739130434782608%" stop-opacity="0.1" style="stop-color:rgb(240,14,119)"/><stop offset="27.391304347826086%" stop-opacity="0.1" style="stop-color:rgb(207,10,154)"/><stop offset="50.43478260869565%" stop-opacity="0.2" style="stop-color:rgb(149,31,186)"/><stop offset="74.78260869565217%" stop-opacity="0.1" style="stop-color:rgb(88,54,220)"/><stop offset="100%" stop-opacity="0.1" style="stop-color:rgb(0,101,253)"/></linearGradient><path d=" M 400 0 L 400 84 Q 391.766 82.531 373 76 C 354.234 69.469 351 66.234 318 59 C 285 51.766 265.875 51.5 246.475 51 C 227.075 50.5 204.717 50.749 182 50 C 159.283 49.251 150.862 49.049 134 48.667 C 117.138 48.284 95.392 44.834 87 43 C 78.608 41.166 69.57 37.132 58 30 C 49.063 24.491 37.152 16.079 32 12 Q 26.848 7.921 0 -1 L 400 0 Z " fill="url(#_lgradient_18)"/><linearGradient id="_lgradient_19" x1="0" y1="0.5" x2="1" y2="0.5" gradientTransform="matrix(360,0,0,112,40,-1)" gradientUnits="userSpaceOnUse"><stop offset="2.1739130434782608%" stop-opacity="0.1" style="stop-color:rgb(240,14,119)"/><stop offset="13.91304347826087%" stop-opacity="0.2" style="stop-color:rgb(227,13,133)"/><stop offset="29.565217391304348%" stop-opacity="0.15" style="stop-color:rgb(211,11,150)"/><stop offset="52.17391304347826%" stop-opacity="0.2" style="stop-color:rgb(175,7,188)"/><stop offset="77.82608695652173%" stop-opacity="0.2" style="stop-color:rgb(77,60,225)"/><stop offset="97.3913043478261%" stop-opacity="0.3" style="stop-color:rgb(0,101,253)"/></linearGradient><path d=" M 400 0 L 400 111 Q 383.203 102.938 364 95 C 344.797 87.063 328.078 81.141 307 76 C 285.922 70.859 273.188 70.313 253 69 C 232.813 67.688 193.188 68.813 170 69 C 146.813 69.188 133.406 66.187 118 58 C 102.594 49.813 90.563 33.313 75 20 Q 59.438 6.688 40 -1 L 400 0 Z " fill="url(#_lgradient_19)"/><linearGradient id="_lgradient_20" x1="0" y1="0.5" x2="1" y2="0.5" gradientTransform="matrix(322,0,0,140,78,0)" gradientUnits="userSpaceOnUse"><stop offset="2.1739130434782608%" stop-opacity="0.1" style="stop-color:rgb(240,14,119)"/><stop offset="13.91304347826087%" stop-opacity="0.2" style="stop-color:rgb(227,13,133)"/><stop offset="29.565217391304348%" stop-opacity="0.15" style="stop-color:rgb(211,11,150)"/><stop offset="52.17391304347826%" stop-opacity="0.2" style="stop-color:rgb(175,7,188)"/><stop offset="77.82608695652173%" stop-opacity="0.2" style="stop-color:rgb(77,60,225)"/><stop offset="97.82608695652173%" stop-opacity="0.2" style="stop-color:rgb(0,101,253)"/></linearGradient><path d=" M 400 0 L 400 140 Q 374.75 125.75 360 118 C 345.25 110.25 327.5 104.25 307 98 C 286.5 91.75 271.75 90 253 89 C 234.25 88 209.547 88.953 193 84 C 173.427 78.141 156.881 61.009 151 55 C 145.25 49.125 131.563 29.313 116 16 Q 100.438 2.688 78 0 L 400 0 Z " fill="url(#_lgradient_20)"/></g></svg>